# Blender v2.90.1 OBJ File: ''
# www.blender.org
mtllib Sliver.mtl
o Plane
v -0.307644 6.929938 2.019987
v -0.307644 7.143769 2.742251
v -0.307645 -8.675324 1.591430
v -0.307645 -4.757801 -0.363761
v -0.307645 2.152701 0.832804
v -0.307645 -0.250329 -0.807284
v -0.168413 4.665658 -1.759833
v -0.168413 4.959975 -2.326305
v 0.307642 7.143769 2.742250
v 0.307642 6.929938 2.019987
v 0.307642 -4.757801 -0.363761
v 0.307642 -8.675324 1.591430
v 0.307642 2.152701 0.832804
v 0.307642 -0.250329 -0.807284
v 0.168411 4.665658 -1.759833
v 0.168411 4.959975 -2.326305
v -0.307645 -8.262937 -0.017682
v 0.307642 -8.262937 -0.017682
v -0.307645 -3.905650 -1.911605
v 0.307642 -3.905650 -1.911605
vt 0.847752 1.000000
vt 0.789616 0.983250
vt 0.720545 0.677417
vt 0.600007 0.518807
vt 0.512219 0.816997
vt 0.423876 0.846071
vt 0.531038 0.283902
vt 0.663468 0.237397
vt 0.712914 0.018571
vt 0.847752 0.000000
vt 0.423876 0.000000
vt 0.423876 1.000000
vt 0.289038 0.981429
vt 0.239592 0.762603
vt 0.107162 0.716099
vt 0.000000 0.153929
vt 0.088342 0.183003
vt 0.176131 0.481193
vt 0.296669 0.322583
vt 0.365740 0.016750
vt 1.000000 0.142160
vt 1.000000 0.299432
vt 0.949251 0.299432
vt 0.949251 0.142160
vt 0.949251 0.103898
vt 0.949251 0.205553
vt 0.898502 0.205553
vt 0.898502 0.103898
vt 0.898502 0.615671
vt 0.898502 0.562736
vt 0.949251 0.562736
vt 0.949251 0.615671
vt 1.000000 0.000000
vt 0.949251 0.000000
vt 0.898501 0.000000
vt 0.898502 0.993881
vt 0.847753 0.993881
vt 0.847752 0.000000
vt 1.000000 0.346924
vt 0.949251 0.346924
vt 0.949251 0.316068
vt 0.949251 0.562736
vt 0.898502 0.562736
vt 0.898502 0.316068
vt 1.000000 0.346924
vt 1.000000 0.650701
vt 0.949251 0.650701
vt 0.949251 0.346924
vt 0.949251 0.000000
vt 0.898502 0.000000
vn -1.0000 0.0029 -0.0058
vn 1.0000 0.0029 -0.0058
vn -0.0000 0.2412 -0.9705
vn -0.0000 -0.0983 -0.9952
vn 0.0000 0.8874 0.4610
vn -0.0000 0.5637 -0.8260
vn 0.0000 -0.0726 0.9974
vn -0.0000 0.9589 -0.2839
vn 0.0000 -0.0467 -0.9989
vn 0.0000 0.1902 0.9817
vn -0.0000 -0.9687 -0.2483
vn -0.0000 -0.8760 -0.4823
usemtl Material
s off
f 2/1/1 1/2/1 5/3/1 6/4/1 7/5/1 8/6/1 19/7/1 4/8/1 17/9/1 3/10/1
f 9/11/2 12/12/2 18/13/2 11/14/2 20/15/2 16/16/2 15/17/2 14/18/2 13/19/2 10/20/2
f 5/21/3 1/22/3 10/23/3 13/24/3
f 17/25/4 4/26/4 11/27/4 18/28/4
f 8/29/5 7/30/5 15/31/5 16/32/5
f 6/33/6 5/21/6 13/24/6 14/34/6
f 2/35/7 3/36/7 12/37/7 9/38/7
f 1/22/8 2/39/8 9/40/8 10/23/8
f 19/41/9 8/42/9 16/43/9 20/44/9
f 7/45/10 6/46/10 14/47/10 15/48/10
f 3/49/11 17/25/11 18/28/11 12/50/11
f 4/26/12 19/41/12 20/44/12 11/27/12
